<svg id="Capa_1" enable-background="new 0 0 512 512" height="512" viewBox="0 0 512 512" width="512" xmlns="http://www.w3.org/2000/svg"><g><g><path d="m287.536 451.88-58.74 26.31-58.74-26.31 19.14-53.34 7.2-20.08 32.4-22.79 32.4 22.79 7.2 20.08z" fill="#e7a52e"/><path d="m208.88 451.88 19.92 26.31-58.74-26.31 26.34-73.42 32.4-22.79-10.99 22.79z" fill="#df8621"/><path d="m268.396 398.54h-79.2l7.2-20.08 32.4-22.79 32.4 22.79z" fill="#df8621"/><path d="m296.505 312.056h-135.418c-11.763 0-21.299 9.536-21.299 21.299v23.807c0 11.763 9.536 21.299 21.299 21.299h135.418c11.763 0 21.299-9.536 21.299-21.299v-23.807c0-11.763-9.536-21.299-21.299-21.299z" fill="#e7a52e"/><path d="m200.172 378.458h-39.088c-11.764 0-21.296-9.542-21.296-21.296v-23.809c0-11.764 9.533-21.296 21.296-21.296h39.088c-11.764 0-21.296 9.533-21.296 21.296v23.809c0 11.754 9.533 21.296 21.296 21.296z" fill="#df8621"/><path d="m402.883 181.586c0 4.237-.148 8.432-.453 12.587-2.061 28.965-11.218 55.968-25.742 79.287-23.648 37.999-61.54 66.214-106.216 77.193-13.353 3.281-27.308 5.02-41.675 5.02s-28.322-1.739-41.675-5.02c-44.676-10.979-82.567-39.194-106.216-77.193-14.524-23.319-23.681-50.322-25.742-79.287-.305-4.154-.453-8.35-.453-12.587 0-42.771 15.422-81.933 41.008-112.241 18.035-21.357 41.115-38.312 67.409-49.036 20.259-8.259 42.432-12.809 65.668-12.809s45.409 4.55 65.67 12.809c26.294 10.724 49.374 27.679 67.409 49.036 25.585 30.309 41.008 69.47 41.008 112.241z" fill="#f4dd45"/><path d="m247.458 350.653c3.792.931 7.625 1.739 11.507 2.415-9.801 1.715-19.881 2.605-30.168 2.605-14.367 0-28.322-1.739-41.675-5.02-44.676-10.979-82.567-39.194-106.216-77.193-14.524-23.319-23.681-50.322-25.742-79.287-.305-4.154-.453-8.35-.453-12.587 0-42.771 15.422-81.933 41.008-112.241 18.035-21.357 41.115-38.312 67.409-49.036 20.259-8.259 42.432-12.809 65.668-12.809 10.287 0 20.368.89 30.168 2.605-12.331 2.151-24.209 5.605-35.501 10.205-26.294 10.724-49.374 27.679-67.409 49.036-25.585 30.309-41.008 69.47-41.008 112.241 0 4.237.149 8.432.453 12.587 2.061 28.965 11.218 55.968 25.742 79.287 23.65 37.998 61.541 66.212 106.217 77.192z" fill="#eab14d"/><g><g><path d="m294.466 20.309-65.67 47.717-39.755-28.891-25.915-18.826c20.261-8.259 42.434-12.809 65.67-12.809 10.279 0 20.343.89 30.119 2.596.017 0 .033.008.049.008 12.332 2.152 24.21 5.606 35.502 10.205z" fill="#e7a52e"/></g><g><path d="m120.792 146.497-65.629 47.676c-.305-4.154-.453-8.35-.453-12.587 0-42.771 15.422-81.933 41.008-112.241z" fill="#df8621"/></g><g><path d="m187.121 350.653c-44.676-10.979-82.567-39.194-106.216-77.193h81.141l12.817 39.466z" fill="#e7a52e"/></g><g><path d="m376.687 273.46c-23.648 37.999-61.54 66.214-106.216 77.193l25.074-77.193z" fill="#e7a52e"/></g><g><path d="m402.883 181.586c0 4.237-.148 8.432-.453 12.587l-65.629-47.676 25.074-77.152c25.585 30.309 41.008 69.47 41.008 112.241z" fill="#e7a52e"/></g></g><path d="m174.864 312.926 12.257 37.727c-44.676-10.979-82.567-39.194-106.216-77.193h60.337c9.199 14.779 20.549 28.083 33.622 39.466z" fill="#df8621"/><path d="m258.965 10.105c-12.331 2.151-24.209 5.605-35.501 10.205-12.232 4.987-23.772 11.325-34.422 18.826l-25.915-18.826c20.26-8.26 42.433-12.81 65.669-12.81 10.279 0 20.343.89 30.119 2.596.017 0 .033.009.05.009z" fill="#df8621"/><path d="m228.796 108.078-69.911 50.793 26.704 82.186h86.415l26.704-82.186z" fill="#e7a52e"/><path d="m328.892 451.878h-200.192c-14.531 0-26.311 11.78-26.311 26.311 0 14.531 11.78 26.311 26.311 26.311h200.192c14.531 0 26.311-11.78 26.311-26.311 0-14.531-11.78-26.311-26.311-26.311z" fill="#f4dd45"/><path d="m177.049 496.789c4.76 4.77 11.34 7.71 18.6 7.71h-66.95c-7.27 0-13.84-2.94-18.6-7.71-4.77-4.76-7.71-11.33-7.71-18.6 0-14.53 11.78-26.31 26.31-26.31h66.95c-14.53 0-26.31 11.78-26.31 26.31 0 7.27 2.95 13.84 7.71 18.6z" fill="#eab14d"/><g><g><path d="m417.092 91.167 32.63-7.148c10.1-2.212 10.1-16.615 0-18.827l-32.63-7.147c-3.676-.805-6.546-3.676-7.352-7.352l-7.147-32.63c-2.212-10.1-16.615-10.1-18.827 0l-7.147 32.63c-.805 3.676-3.676 6.546-7.352 7.352l-32.63 7.147c-10.1 2.212-10.1 16.615 0 18.827l32.63 7.148c3.676.805 6.546 3.676 7.352 7.352l7.147 32.63c2.212 10.1 16.615 10.1 18.827 0l7.147-32.63c.806-3.676 3.677-6.547 7.352-7.352z" fill="#fbf4af"/></g></g><g><g><path d="m177.186 344.434 35.258-7.723c10.913-2.39 10.913-17.953 0-20.343l-35.258-7.723c-3.972-.87-7.074-3.972-7.944-7.944l-7.723-35.258c-2.39-10.913-17.953-10.913-20.343 0l-7.723 35.258c-.87 3.972-3.972 7.074-7.944 7.944l-35.258 7.723c-10.913 2.39-10.913 17.953 0 20.343l35.258 7.723c3.972.87 7.074 3.972 7.944 7.944l7.723 35.258c2.39 10.913 17.953 10.913 20.343 0l7.723-35.258c.87-3.972 3.972-7.074 7.944-7.944z" fill="#fbf4af"/></g></g></g><path d="m451.327 57.866-32.63-7.147c-.813-.178-1.452-.818-1.63-1.63l-7.147-32.631c-1.766-8.057-8.493-13.47-16.741-13.469-8.247 0-14.974 5.414-16.738 13.47l-7.147 32.629c-.178.813-.818 1.453-1.63 1.631l-10.626 2.328c-17.193-17.174-37.27-30.517-59.744-39.681-21.753-8.869-44.8-13.366-68.502-13.366s-46.75 4.497-68.509 13.368c-5.118 2.093-10.104 4.397-14.818 6.846-3.676 1.91-5.107 6.437-3.198 10.113 1.908 3.676 6.436 5.108 10.113 3.198 3.137-1.63 6.412-3.188 9.769-4.656l59.148 42.978v32.409l-63.728 46.3-30.825-10.012-22.585-69.491c6.618-7.454 13.908-14.323 21.715-20.455 3.258-2.559 3.824-7.273 1.266-10.531-2.559-3.258-7.274-3.824-10.531-1.266-9.692 7.612-18.651 16.262-26.629 25.71-27.585 32.677-42.778 74.256-42.778 117.079 0 4.448.162 8.869.479 13.112 2.079 29.242 11.365 57.847 26.853 82.721 6.632 10.655 14.363 20.581 23.05 29.661l-8.937 1.958c-8.422 1.845-14.08 8.877-14.08 17.499 0 8.621 5.658 15.653 14.08 17.497l35.258 7.723c1.107.243 1.98 1.115 2.223 2.222l7.723 35.258c1.845 8.422 8.877 14.08 17.499 14.08 8.621 0 15.653-5.658 17.497-14.08l.719-3.281h16.177l-20.958 58.42h-36.08c-18.643 0-33.81 15.167-33.81 33.81 0 9.026 3.518 17.515 9.901 23.897 6.378 6.393 14.87 9.913 23.909 9.913h200.189c18.644 0 33.811-15.167 33.811-33.81 0-9.039-3.521-17.529-9.908-23.905-1.199-1.199-2.457-2.285-3.737-3.227-3.338-2.454-8.031-1.739-10.485 1.597-2.455 3.337-1.74 8.031 1.597 10.486.675.496 1.354 1.086 2.026 1.757 3.552 3.545 5.508 8.265 5.508 13.292 0 10.372-8.438 18.81-18.811 18.81h-200.193c-5.027 0-9.747-1.956-13.297-5.513-3.555-3.555-5.513-8.277-5.513-13.297 0-10.372 8.438-18.81 18.81-18.81h183.62c4.143 0 7.5-3.358 7.5-7.5s-3.357-7.5-7.5-7.5h-19.512l-20.959-58.42h24.654c15.881 0 28.801-12.915 28.801-28.79v-21.65c23.146-14.506 42.89-34.225 57.747-58.096 15.488-24.876 24.774-53.481 26.853-82.696.318-4.276.48-8.697.48-13.138 0-13.77-1.557-27.461-4.611-40.777 1.999-2.176 3.455-4.912 4.144-8.059l7.147-32.631c.178-.812.817-1.451 1.63-1.629l32.63-7.147c8.058-1.765 13.471-8.492 13.471-16.74 0-8.249-5.413-14.976-13.47-16.741zm-270.608 386.512 20.957-58.416h54.24l20.957 58.416zm154.313-353.032 11.023 2.414-15.21 46.786-30.821 10.011-63.727-46.3v-32.409l59.149-42.979c16.081 7.021 30.774 16.427 43.857 28.062l-4.269.935c-8.057 1.765-13.47 8.492-13.471 16.74-.001 8.247 5.412 14.975 13.469 16.74zm56.56 54.807c2.382 11.002 3.644 22.271 3.766 33.613l-49.745-36.131 15.167-46.65 6.882 1.508c.813.178 1.453.818 1.631 1.63l7.147 32.63c1.65 7.533 7.639 12.753 15.152 13.4zm-113.003-123.579-49.792 36.181-49.796-36.183c16.034-5.021 32.723-7.572 49.791-7.572 17.07 0 33.761 2.551 49.797 7.574zm-49.793 94.774 61.095 44.388-23.337 71.821h-75.517l-23.336-71.821zm35.857 226.943c-19.874 4.345-40.727 5.016-60.891 1.999l10.287-2.253c8.422-1.844 14.08-8.876 14.08-17.497 0-8.622-5.658-15.654-14.08-17.499l-35.257-7.723c-1.107-.243-1.98-1.115-2.223-2.223l-5.531-25.251 18.373-25.288h78.773l19.049 26.219zm-202.431-164.516c.372-34.009 11.173-67.076 30.742-94.635l19.01 58.493zm.778 17.976 59.109-42.94 30.824 10.012 24.342 74.917-12.019 16.543c-3.271-4.068-8.24-6.524-13.908-6.524-8.621 0-15.653 5.658-17.498 14.08l-.465 2.121h-48.243c-12.22-20.777-19.821-44.186-22.142-68.209zm32.113 83.209h34.986l-3.973 18.136c-.243 1.107-1.115 1.98-2.222 2.223l-8.856 1.94c-7.314-6.846-13.982-14.305-19.935-22.299zm59.08 105.071c-.415 1.892-1.776 2.289-2.845 2.289s-2.431-.397-2.846-2.289l-7.723-35.258c-1.492-6.81-6.855-12.173-13.665-13.665l-35.258-7.723c-1.892-.415-2.289-1.776-2.289-2.845s.397-2.431 2.289-2.846l35.258-7.723c6.81-1.492 12.173-6.855 13.665-13.666l7.723-35.257c.415-1.893 1.776-2.29 2.846-2.29 1.069 0 2.431.397 2.845 2.29l7.723 35.258c1.492 6.81 6.855 12.173 13.666 13.665l35.257 7.723c1.893.415 2.29 1.776 2.29 2.846 0 1.069-.397 2.431-2.29 2.845l-35.258 7.723c-6.81 1.492-12.173 6.855-13.665 13.665zm156.114-28.861c0 7.604-6.191 13.79-13.801 13.79h-123.656l3.4-15.522c2.98.898 6.011 1.738 9.079 2.495 14.151 3.475 28.776 5.236 43.468 5.236s29.317-1.762 43.47-5.237c13.308-3.271 26.043-7.98 38.04-13.986zm-28.328-17.668 19.016-58.543h61.513c-20.345 27.435-48.269 47.734-80.529 58.543zm90.468-73.543h-73.08l-19.049-26.219 24.343-74.917 30.818-10.01 59.111 42.934c-2.317 24.009-9.919 47.427-22.143 68.212zm75.671-189.266-32.63 7.147c-6.516 1.427-11.647 6.559-13.073 13.073l-7.147 32.63c-.091.416-.368 1.68-2.088 1.68-1.719 0-1.996-1.264-2.087-1.68l-7.147-32.631c-1.428-6.514-6.56-11.645-13.073-13.072l-32.631-7.147c-.415-.091-1.68-.368-1.68-2.087.001-1.719 1.265-1.996 1.68-2.087l32.632-7.148c6.513-1.427 11.645-6.558 13.072-13.073l7.147-32.631c.091-.415.368-1.679 2.087-1.679 1.72 0 1.997 1.264 2.088 1.679l7.147 32.63c1.426 6.515 6.558 11.647 13.073 13.074l32.63 7.148c.415.091 1.679.368 1.68 2.087 0 1.719-1.265 1.996-1.68 2.087z"/></g></svg>